<svg width="72" height="15" viewBox="0 0 72 15" fill="none" xmlns="http://www.w3.org/2000/svg">
<path d="M66.8522 14.224C66.5109 14.224 66.1482 14.1013 65.7642 13.856C65.3802 13.6106 65.0549 13.248 64.7882 12.768C64.3936 12.448 64.1002 12.0693 63.9082 11.632C63.7269 11.184 63.6362 10.7413 63.6362 10.304C63.6362 9.56797 63.7322 8.86397 63.9242 8.19197C64.1162 7.5093 64.3776 6.90663 64.7082 6.38397C65.0496 5.85063 65.4389 5.4293 65.8762 5.11997C66.3242 4.81063 66.7989 4.65597 67.3002 4.65597C67.7696 4.65597 68.2496 4.83197 68.7402 5.18397C68.7936 4.68263 68.8469 4.17597 68.9002 3.66397C68.9642 3.1413 69.0389 2.5973 69.1242 2.03197C69.1456 1.91463 69.1776 1.81863 69.2202 1.74397C69.2736 1.65863 69.3802 1.61597 69.5402 1.61597C69.8282 1.61597 70.1216 1.7013 70.4202 1.87197C70.7296 2.03197 70.9856 2.2613 71.1882 2.55997C71.3909 2.84797 71.4709 3.1893 71.4282 3.58397C71.3322 4.49063 71.2362 5.42397 71.1402 6.38397C71.0549 7.34397 70.9749 8.28263 70.9002 9.19997C70.8256 10.1173 70.7669 10.9813 70.7242 11.792C70.6816 12.592 70.6602 13.296 70.6602 13.904C70.6602 14.128 70.5749 14.24 70.4042 14.24C70.1696 14.24 69.8816 14.1653 69.5402 14.016C69.2096 13.8666 68.9322 13.6 68.7082 13.216C68.3776 13.568 68.0416 13.824 67.7002 13.984C67.3696 14.144 67.0869 14.224 66.8522 14.224ZM66.0682 11.344C66.0682 11.8026 66.2762 12.032 66.6922 12.032C66.9056 12.032 67.1882 11.9573 67.5402 11.808C67.8922 11.648 68.1696 11.4133 68.3722 11.104C68.4042 10.3253 68.4362 9.5733 68.4682 8.84797C68.5109 8.11197 68.5589 7.37597 68.6122 6.63997C68.4202 6.5333 68.2282 6.47997 68.0362 6.47997C67.6736 6.47997 67.3429 6.68797 67.0442 7.10397C66.7456 7.51997 66.5056 8.09597 66.3242 8.83197C66.1536 9.5573 66.0682 10.3946 66.0682 11.344Z" fill="#4D4F3E"/>
<path d="M61.7323 14.224C61.455 14.224 61.151 14.16 60.8203 14.032C60.5003 13.9146 60.223 13.7066 59.9883 13.408C59.7643 13.0986 59.6523 12.672 59.6523 12.128C59.6523 12 59.663 11.7066 59.6843 11.248C59.7163 10.7893 59.7537 10.224 59.7963 9.55198C59.8497 8.87998 59.903 8.16531 59.9563 7.40798C60.0203 6.63998 60.0843 5.88798 60.1483 5.15198C60.2123 4.41598 60.2763 3.75464 60.3403 3.16798C60.4043 2.57064 60.463 2.11731 60.5163 1.80798C60.5377 1.72264 60.591 1.66931 60.6763 1.64798C60.7617 1.61598 60.8363 1.59998 60.9003 1.59998C61.135 1.59998 61.4017 1.66931 61.7003 1.80798C62.0097 1.94664 62.271 2.15998 62.4843 2.44798C62.7083 2.73598 62.799 3.10398 62.7563 3.55198C62.735 3.78664 62.703 4.15464 62.6603 4.65598C62.6177 5.15731 62.5643 5.73864 62.5003 6.39998C62.447 7.06131 62.3937 7.75998 62.3403 8.49598C62.287 9.22131 62.2337 9.93598 62.1803 10.64C62.1377 11.344 62.1003 11.9893 62.0683 12.576C62.0363 13.152 62.0203 13.616 62.0203 13.968C62.0203 14.0213 61.9937 14.0746 61.9403 14.128C61.8977 14.192 61.8283 14.224 61.7323 14.224Z" fill="#4D4F3E"/>
<path d="M54.5296 14.24C54.1776 14.24 53.8362 14.1707 53.5056 14.032C53.1856 13.904 52.9242 13.68 52.7216 13.36C52.2096 13.1147 51.8149 12.688 51.5376 12.08C51.2602 11.472 51.1216 10.7627 51.1216 9.952C51.1216 9.248 51.2176 8.58133 51.4096 7.952C51.6016 7.312 51.8629 6.74666 52.1936 6.256C52.5242 5.76533 52.9029 5.38133 53.3296 5.104C53.7669 4.816 54.2256 4.672 54.7056 4.672C55.1109 4.672 55.5162 4.74666 55.9216 4.896C56.3269 5.03466 56.6789 5.29066 56.9776 5.664C57.5002 5.93066 57.9002 6.32 58.1776 6.832C58.4656 7.344 58.6096 7.904 58.6096 8.512C58.6096 9.29066 58.5296 10.0267 58.3696 10.72C58.2096 11.4133 57.9642 12.0267 57.6336 12.56C57.3029 13.0827 56.8816 13.4933 56.3696 13.792C55.8576 14.0907 55.2442 14.24 54.5296 14.24ZM54.2096 12.48C54.5296 12.48 54.8122 12.3413 55.0576 12.064C55.3029 11.7867 55.5109 11.4347 55.6816 11.008C55.8522 10.5707 55.9802 10.1013 56.0656 9.6C56.1616 9.09866 56.2096 8.624 56.2096 8.176C56.2096 7.68533 56.1509 7.27466 56.0336 6.944C55.9269 6.61333 55.7509 6.448 55.5056 6.448C55.1856 6.448 54.9029 6.58666 54.6576 6.864C54.4122 7.14133 54.2042 7.49866 54.0336 7.936C53.8629 8.36266 53.7296 8.82666 53.6336 9.328C53.5482 9.82933 53.5056 10.304 53.5056 10.752C53.5056 11.2427 53.5642 11.6533 53.6816 11.984C53.7989 12.3147 53.9749 12.48 54.2096 12.48Z" fill="#4D4F3E"/>
<path d="M49.2086 14.224C48.718 14.224 48.302 14.0426 47.9606 13.68C47.63 13.3066 47.4646 12.8533 47.4646 12.32C47.4646 12.0533 47.4806 11.696 47.5126 11.248C47.5553 10.8 47.6193 10.32 47.7046 9.80798C47.8006 9.29598 47.9286 8.81598 48.0886 8.36798C47.6406 8.81598 47.23 9.34931 46.8566 9.96798C46.494 10.5866 46.158 11.2533 45.8486 11.968C45.55 12.6826 45.2673 13.4133 45.0006 14.16C44.7126 14.128 44.4833 14.0586 44.3126 13.952C44.142 13.8346 43.9873 13.6853 43.8486 13.504C43.5606 13.3013 43.374 13.0773 43.2886 12.832C43.2033 12.5866 43.1606 12.304 43.1606 11.984C43.1606 11.5893 43.1713 11.0773 43.1926 10.448C43.2246 9.80798 43.262 9.11464 43.3046 8.36798C43.358 7.62131 43.4113 6.87464 43.4646 6.12798C43.5286 5.37064 43.5926 4.67198 43.6566 4.03198C43.7313 3.39198 43.806 2.86931 43.8806 2.46398C43.934 2.14398 44.0033 1.91998 44.0886 1.79198C44.1846 1.66398 44.3446 1.59998 44.5686 1.59998C44.7606 1.59998 44.974 1.66398 45.2086 1.79198C45.4433 1.90931 45.646 2.09598 45.8166 2.35198C45.9873 2.59731 46.0726 2.92264 46.0726 3.32798C46.0726 3.37064 46.0726 3.41864 46.0726 3.47198C46.0726 3.52531 46.0673 3.57864 46.0566 3.63198L45.3686 9.39198H45.4006C45.6886 8.73064 46.0033 8.12264 46.3446 7.56798C46.686 7.01331 47.022 6.57064 47.3526 6.23998C47.6833 5.89864 47.982 5.72798 48.2486 5.72798C48.4513 5.72798 48.6593 5.77598 48.8726 5.87198C49.086 5.95731 49.262 6.09064 49.4006 6.27198C49.678 6.37864 49.886 6.53864 50.0246 6.75198C50.174 6.95464 50.2326 7.16264 50.2006 7.37598C50.1366 7.80264 50.0566 8.33064 49.9606 8.95998C49.8753 9.58931 49.7953 10.2666 49.7206 10.992C49.6566 11.7173 49.6246 12.432 49.6246 13.136C49.6246 13.3066 49.63 13.4773 49.6406 13.648C49.662 13.8186 49.678 13.9786 49.6886 14.128C49.5286 14.192 49.3686 14.224 49.2086 14.224Z" fill="#4D4F3E"/>
<path d="M36.9118 14.224C36.4211 14.224 36.0051 14.0426 35.6638 13.68C35.3331 13.3066 35.1678 12.8533 35.1678 12.32C35.1678 12.0533 35.1838 11.696 35.2158 11.248C35.2584 10.8 35.3224 10.32 35.4078 9.80798C35.5038 9.29598 35.6318 8.81598 35.7918 8.36798C35.3438 8.81598 34.9331 9.34931 34.5598 9.96798C34.1971 10.5866 33.8611 11.2533 33.5518 11.968C33.2531 12.6826 32.9704 13.4133 32.7038 14.16C32.4158 14.128 32.1864 14.0586 32.0158 13.952C31.8451 13.8346 31.6904 13.6853 31.5518 13.504C31.2638 13.3013 31.0771 13.0773 30.9918 12.832C30.9064 12.5866 30.8638 12.304 30.8638 11.984C30.8638 11.5893 30.8744 11.0773 30.8958 10.448C30.9278 9.80798 30.9651 9.11464 31.0078 8.36798C31.0611 7.62131 31.1144 6.87464 31.1678 6.12798C31.2318 5.37064 31.2958 4.67198 31.3598 4.03198C31.4344 3.39198 31.5091 2.86931 31.5838 2.46398C31.6371 2.14398 31.7064 1.91998 31.7918 1.79198C31.8878 1.66398 32.0478 1.59998 32.2718 1.59998C32.4638 1.59998 32.6771 1.66398 32.9118 1.79198C33.1464 1.90931 33.3491 2.09598 33.5198 2.35198C33.6904 2.59731 33.7758 2.92264 33.7758 3.32798C33.7758 3.37064 33.7758 3.41864 33.7758 3.47198C33.7758 3.52531 33.7704 3.57864 33.7598 3.63198L33.0718 9.39198H33.1038C33.3918 8.73064 33.7064 8.12264 34.0478 7.56798C34.3891 7.01331 34.7251 6.57064 35.0558 6.23998C35.3864 5.89864 35.6851 5.72798 35.9518 5.72798C36.1544 5.72798 36.3624 5.77598 36.5758 5.87198C36.7891 5.95731 36.9651 6.09064 37.1038 6.27198C37.3811 6.37864 37.5891 6.53864 37.7278 6.75198C37.8771 6.95464 37.9358 7.16264 37.9038 7.37598C37.8398 7.80264 37.7598 8.33064 37.6638 8.95998C37.5784 9.58931 37.4984 10.2666 37.4238 10.992C37.3598 11.7173 37.3278 12.432 37.3278 13.136C37.3278 13.3066 37.3331 13.4773 37.3438 13.648C37.3651 13.8186 37.3811 13.9786 37.3918 14.128C37.2318 14.192 37.0718 14.224 36.9118 14.224Z" fill="#4D4F3E"/>
<path d="M26.5667 14.208C26.012 14.208 25.4787 14.128 24.9667 13.968C24.4547 13.808 24.0333 13.5626 23.7027 13.232C23.3827 12.8906 23.2227 12.4693 23.2227 11.968C23.2227 11.6906 23.276 11.4453 23.3827 11.232C23.5 11.0186 23.66 10.912 23.8627 10.912C24.0333 11.1893 24.252 11.4293 24.5187 11.632C24.796 11.8346 25.084 11.9893 25.3827 12.096C25.692 12.192 25.9693 12.24 26.2147 12.24C26.46 12.24 26.6627 12.192 26.8227 12.096C26.9827 11.9893 27.0627 11.8293 27.0627 11.616C27.0627 11.488 27.0147 11.3653 26.9187 11.248C26.8227 11.1306 26.636 11.024 26.3587 10.928L24.9987 10.464C24.476 10.2826 24.1187 10.0586 23.9267 9.79197C23.7453 9.5253 23.6547 9.1573 23.6547 8.68797C23.6547 8.30397 23.7453 7.88797 23.9267 7.43997C24.1187 6.9813 24.3747 6.54397 24.6947 6.12797C25.0253 5.71197 25.3933 5.37597 25.7987 5.11997C26.2147 4.8533 26.6467 4.71997 27.0947 4.71997C27.4573 4.71997 27.788 4.7573 28.0867 4.83197C28.3853 4.89597 28.6467 5.0773 28.8707 5.37597C29.2227 5.53597 29.4787 5.75464 29.6387 6.03197C29.8093 6.3093 29.8947 6.55464 29.8947 6.76797C29.8947 6.99197 29.836 7.22664 29.7187 7.47197C29.6013 7.7173 29.4733 7.96797 29.3347 8.22397C29.2067 8.47997 29.1053 8.73064 29.0307 8.97597C29.0093 9.05064 28.9773 9.11464 28.9347 9.16797C28.9027 9.2213 28.8333 9.24797 28.7267 9.24797C28.6093 9.24797 28.476 9.19464 28.3267 9.08797C28.1773 8.9813 28.028 8.8533 27.8787 8.70397C27.74 8.54397 27.6227 8.3893 27.5267 8.23997C27.4413 8.07997 27.3987 7.9573 27.3987 7.87197C27.3987 7.61597 27.468 7.37064 27.6067 7.13597C27.7453 6.9013 27.8147 6.71464 27.8147 6.57597C27.8147 6.52264 27.8093 6.47997 27.7987 6.44797C27.788 6.4053 27.7507 6.38397 27.6867 6.38397C27.484 6.38397 27.2653 6.51197 27.0307 6.76797C26.8067 7.0133 26.6147 7.32264 26.4547 7.69597C26.2947 8.05864 26.2147 8.42131 26.2147 8.78397C26.2147 8.9973 26.38 9.16264 26.7107 9.27997L28.2947 9.88797C29.1373 10.2186 29.5587 10.752 29.5587 11.488C29.5587 12.0426 29.4147 12.528 29.1267 12.944C28.8493 13.3493 28.4813 13.664 28.0227 13.888C27.564 14.1013 27.0787 14.208 26.5667 14.208Z" fill="#4D4F3E"/>
<path d="M21.4828 14.224C21.2054 14.224 20.9121 14.1706 20.6028 14.064C20.3041 13.9573 20.0481 13.8026 19.8348 13.6C19.6321 13.3973 19.5308 13.152 19.5308 12.864C19.5308 12.6933 19.5414 12.3893 19.5628 11.952C19.5841 11.5146 19.6108 11.008 19.6428 10.432C19.6748 9.8453 19.7121 9.24263 19.7548 8.62396C19.7974 7.99463 19.8454 7.39729 19.8988 6.83196C19.9521 6.26663 20.0001 5.78663 20.0428 5.39196C20.0534 5.30663 20.1068 5.25329 20.2028 5.23196C20.2988 5.19996 20.3788 5.18396 20.4428 5.18396C20.6881 5.18396 20.9601 5.25329 21.2588 5.39196C21.5574 5.53063 21.8134 5.70663 22.0268 5.91996C22.2508 6.1333 22.3628 6.35729 22.3628 6.59196C22.3628 6.73063 22.3414 7.00796 22.2988 7.42396C22.2561 7.82929 22.2028 8.31463 22.1388 8.87996C22.0854 9.44529 22.0268 10.0373 21.9628 10.656C21.9094 11.2746 21.8614 11.8773 21.8188 12.464C21.7761 13.04 21.7548 13.5413 21.7548 13.968C21.7548 14.0213 21.7334 14.0746 21.6908 14.128C21.6481 14.192 21.5788 14.224 21.4828 14.224ZM21.7068 3.59996C21.3548 3.59996 21.0294 3.56263 20.7308 3.48796C20.4428 3.40263 20.2134 3.25329 20.0428 3.03996C19.8828 2.82663 19.8134 2.52263 19.8348 2.12796C19.8561 1.92529 19.8828 1.70663 19.9148 1.47196C19.9574 1.22663 20.0961 1.07729 20.3308 1.02396C20.4588 1.00263 20.6134 0.986628 20.7948 0.975962C20.9761 0.965295 21.1361 0.959961 21.2748 0.959961C21.5734 0.959961 21.9041 1.00796 22.2668 1.10396C22.4481 1.14663 22.5388 1.21596 22.5388 1.31196C22.5388 1.55729 22.5014 1.84529 22.4268 2.17596C22.3521 2.50663 22.2721 2.95996 22.1868 3.53596C22.0161 3.57863 21.8561 3.59996 21.7068 3.59996Z" fill="#4D4F3E"/>
<path d="M17.4296 14.224C16.715 14.224 16.219 14.016 15.9416 13.6C15.675 13.184 15.5416 12.6506 15.5416 12C15.5416 11.4986 15.6056 10.9493 15.7336 10.352C15.8616 9.74396 16.011 9.13063 16.1816 8.51196H16.1496C15.6163 9.37596 15.1203 10.2826 14.6616 11.232C14.203 12.1706 13.7763 13.152 13.3816 14.176C12.8056 14.176 12.3576 13.9786 12.0376 13.584C11.707 13.4346 11.4616 13.216 11.3016 12.928C11.1523 12.6293 11.0776 12.3146 11.0776 11.984C11.0776 11.0026 11.1363 9.91996 11.2536 8.73596C11.371 7.55196 11.5683 6.31996 11.8456 5.03996C11.8776 4.8373 11.9896 4.73596 12.1816 4.73596C12.4696 4.73596 12.7416 4.8053 12.9976 4.94396C13.2536 5.07196 13.4616 5.25863 13.6216 5.50396C13.7816 5.7493 13.8616 6.0373 13.8616 6.36796C13.8616 6.4213 13.8616 6.47996 13.8616 6.54396C13.8616 6.60796 13.851 6.67196 13.8296 6.73596L13.0296 10.864H13.0616C13.3283 10.256 13.595 9.6533 13.8616 9.05596C14.139 8.44796 14.4163 7.89863 14.6936 7.40796C14.9816 6.90663 15.2803 6.50663 15.5896 6.20796C15.899 5.89863 16.219 5.74396 16.5496 5.74396C16.8163 5.74396 17.099 5.88263 17.3976 6.15996C17.6963 6.2453 17.9203 6.3893 18.0696 6.59196C18.2296 6.78396 18.3096 6.9973 18.3096 7.23196C18.3096 7.26396 18.3096 7.29596 18.3096 7.32796C18.3096 7.35996 18.3043 7.39196 18.2936 7.42396C18.251 7.65863 18.203 7.9893 18.1496 8.41596C18.0963 8.83196 18.043 9.30663 17.9896 9.83996C17.947 10.3626 17.9096 10.912 17.8776 11.488C17.8456 12.0533 17.8296 12.6026 17.8296 13.136C17.8296 13.3066 17.835 13.4773 17.8456 13.648C17.867 13.8186 17.8883 13.9786 17.9096 14.128C17.7496 14.192 17.5896 14.224 17.4296 14.224Z" fill="#4D4F3E"/>
<path d="M8.85776 14.224C8.58043 14.224 8.2871 14.1706 7.97776 14.064C7.6791 13.9573 7.4231 13.8026 7.20976 13.6C7.0071 13.3973 6.90576 13.152 6.90576 12.864C6.90576 12.6933 6.91643 12.3893 6.93776 11.952C6.9591 11.5146 6.98576 11.008 7.01776 10.432C7.04976 9.8453 7.0871 9.24263 7.12976 8.62396C7.17243 7.99463 7.22043 7.39729 7.27376 6.83196C7.3271 6.26663 7.3751 5.78663 7.41776 5.39196C7.42843 5.30663 7.48176 5.25329 7.57776 5.23196C7.67376 5.19996 7.75376 5.18396 7.81776 5.18396C8.0631 5.18396 8.3351 5.25329 8.63376 5.39196C8.93243 5.53063 9.18843 5.70663 9.40176 5.91996C9.62576 6.1333 9.73776 6.35729 9.73776 6.59196C9.73776 6.73063 9.71643 7.00796 9.67376 7.42396C9.6311 7.82929 9.57776 8.31463 9.51376 8.87996C9.46043 9.44529 9.40176 10.0373 9.33776 10.656C9.28443 11.2746 9.23643 11.8773 9.19376 12.464C9.1511 13.04 9.12976 13.5413 9.12976 13.968C9.12976 14.0213 9.10843 14.0746 9.06576 14.128C9.0231 14.192 8.95376 14.224 8.85776 14.224ZM9.08176 3.59996C8.72976 3.59996 8.40443 3.56263 8.10576 3.48796C7.81776 3.40263 7.58843 3.25329 7.41776 3.03996C7.25776 2.82663 7.18843 2.52263 7.20976 2.12796C7.2311 1.92529 7.25776 1.70663 7.28976 1.47196C7.33243 1.22663 7.4711 1.07729 7.70576 1.02396C7.83376 1.00263 7.98843 0.986628 8.16976 0.975962C8.3511 0.965295 8.5111 0.959961 8.64976 0.959961C8.94843 0.959961 9.2791 1.00796 9.64176 1.10396C9.8231 1.14663 9.91376 1.21596 9.91376 1.31196C9.91376 1.55729 9.87643 1.84529 9.80176 2.17596C9.7271 2.50663 9.6471 2.95996 9.56176 3.53596C9.3911 3.57863 9.2311 3.59996 9.08176 3.59996Z" fill="#4D4F3E"/>
<path d="M2.18393 14.224C2.01326 14.224 1.82659 14.192 1.62393 14.128C1.42126 14.064 1.22393 13.9413 1.03193 13.76C0.839926 13.568 0.679926 13.3013 0.551926 12.96C0.434592 12.608 0.375926 12.1493 0.375926 11.584C0.375926 11.4986 0.375926 11.4186 0.375926 11.344C0.375926 11.2586 0.381259 11.1733 0.391926 11.088L0.583926 8.28796C0.391926 8.06396 0.295926 7.88263 0.295926 7.74396C0.295926 7.49863 0.413259 7.35463 0.647926 7.31196L0.855926 4.11196C0.642592 3.9093 0.450592 3.6853 0.279926 3.43996C0.109259 3.18396 0.0239258 2.97063 0.0239258 2.79996C0.0239258 2.6293 0.125259 2.54396 0.327926 2.54396C0.477259 2.54396 0.722592 2.5333 1.06393 2.51196C1.40526 2.47996 1.77859 2.44796 2.18393 2.41596C2.58926 2.38396 2.97859 2.3573 3.35193 2.33596C3.72526 2.30396 4.01859 2.28796 4.23193 2.28796C5.08526 2.28796 5.74126 2.4693 6.19993 2.83196C6.65859 3.18396 6.88793 3.57863 6.88793 4.01596C6.88793 4.12263 6.83459 4.17596 6.72793 4.17596C6.63193 4.17596 6.54126 4.17596 6.45593 4.17596C6.37059 4.1653 6.28526 4.15996 6.19993 4.15996C5.74126 4.15996 5.25059 4.18663 4.72793 4.23996C4.21593 4.2933 3.73593 4.34663 3.28793 4.39996L3.07993 6.94396C3.35726 6.92263 3.61326 6.91196 3.84793 6.91196C4.00793 6.91196 4.19459 6.95996 4.40793 7.05596C4.63193 7.1413 4.84526 7.2533 5.04793 7.39196C5.25059 7.53063 5.42126 7.67997 5.55993 7.83996C5.69859 7.9893 5.76793 8.12796 5.76793 8.25596C5.76793 8.44796 5.71993 8.57063 5.62393 8.62396C5.52793 8.6773 5.37859 8.70396 5.17593 8.70396C4.93059 8.70396 4.59993 8.73596 4.18393 8.79996C3.76793 8.8533 3.34659 8.90663 2.91993 8.95996L2.53593 13.984C2.52526 14.08 2.48793 14.144 2.42393 14.176C2.35993 14.208 2.27993 14.224 2.18393 14.224Z" fill="#4D4F3E"/>
</svg>
